<!-- KDX Icon Set · ★ 교체 지점 ★ · 네이밍 icon-{group}-{name} · 현재 Lucide(ISC)
     커스텀 아이콘 도착 시 같은 id의 <symbol> path만 교체하면 전 화면이 동시 스왑됩니다.
     사용: <svg class="i"><use href="#icon-action-search"/></svg> -->
<svg width="0" height="0" style="position:absolute" aria-hidden="true"><defs>

  <symbol id="icon-brand-logo" viewBox="0 0 24 24"><path d="M6 3h12l4 6-10 13L2 9Z"/><path d="M11 3 8 9l4 13 4-13-3-6"/><path d="M2 9h20"/></symbol>

  <symbol id="icon-feature-secure" viewBox="0 0 24 24"><path d="M20 13c0 5-3.5 7.5-7.66 8.95a1 1 0 0 1-.67-.01C7.5 20.5 4 18 4 13V6a1 1 0 0 1 1-1c2 0 4.5-1.2 6.24-2.72a1.17 1.17 0 0 1 1.52 0C14.51 3.81 17 5 19 5a1 1 0 0 1 1 1z"/><path d="m9 12 2 2 4-4"/></symbol>

  <symbol id="icon-feature-transparent" viewBox="0 0 24 24"><path d="M2.06 12.35a1 1 0 0 1 0-.7 10.94 10.94 0 0 1 19.88 0 1 1 0 0 1 0 .7 10.94 10.94 0 0 1-19.88 0"/><circle cx="12" cy="12" r="3"/></symbol>

  <symbol id="icon-feature-fast" viewBox="0 0 24 24"><path d="M4 14a1 1 0 0 1-.78-1.63l9.9-10.2a.5.5 0 0 1 .86.46l-1.92 6.02A1 1 0 0 0 13 10h7a1 1 0 0 1 .78 1.63l-9.9 10.2a.5.5 0 0 1-.86-.46l1.92-6.02A1 1 0 0 0 11 14z"/></symbol>

  <symbol id="icon-action-search" viewBox="0 0 24 24"><circle cx="11" cy="11" r="8"/><path d="m21 21-4.3-4.3"/></symbol>

  <symbol id="icon-cat-asset" viewBox="0 0 24 24"><circle cx="8" cy="8" r="6"/><path d="M18.09 10.37A6 6 0 1 1 10.34 18"/><path d="M7 6h1v4"/><path d="m16.71 13.88.7.71-2.82 2.82"/></symbol>

  <symbol id="icon-trend-up" viewBox="0 0 24 24"><polyline points="22 7 13.5 15.5 8.5 10.5 2 17"/><polyline points="16 7 22 7 22 13"/></symbol>

  <symbol id="icon-trend-down" viewBox="0 0 24 24"><polyline points="22 17 13.5 8.5 8.5 13.5 2 7"/><polyline points="16 17 22 17 22 11"/></symbol>

  <symbol id="icon-cat-realestate" viewBox="0 0 24 24"><rect width="16" height="20" x="4" y="2" rx="2"/><path d="M9 22v-4h6v4"/><path d="M8 6h.01M16 6h.01M12 6h.01M12 10h.01M12 14h.01M16 10h.01M16 14h.01M8 10h.01M8 14h.01"/></symbol>

  <symbol id="icon-cat-art" viewBox="0 0 24 24"><path d="M12 22a1 1 0 0 1 0-20 10 9 0 0 1 10 9 5 5 0 0 1-5 5h-2.25a1.75 1.75 0 0 0-1.4 2.8l.3.4a1.75 1.75 0 0 1-1.4 2.8z"/><circle cx="13.5" cy="6.5" r=".5"/><circle cx="17.5" cy="10.5" r=".5"/><circle cx="6.5" cy="12.5" r=".5"/><circle cx="8.5" cy="7.5" r=".5"/></symbol>

  <symbol id="icon-cat-logistics" viewBox="0 0 24 24"><path d="M14 18V6a2 2 0 0 0-2-2H4a2 2 0 0 0-2 2v11a1 1 0 0 0 1 1h2"/><path d="M15 18H9"/><path d="M19 18h2a1 1 0 0 0 1-1v-3.65a1 1 0 0 0-.22-.62l-3.48-4.35A1 1 0 0 0 17.52 8H14"/><circle cx="17" cy="18" r="2"/><circle cx="7" cy="18" r="2"/></symbol>

  <symbol id="icon-cat-infra" viewBox="0 0 24 24"><circle cx="12" cy="12" r="4"/><path d="M12 2v2M12 20v2M4.93 4.93l1.41 1.41M17.66 17.66l1.41 1.41M2 12h2M20 12h2M6.34 17.66l-1.41 1.41M19.07 4.93l-1.41 1.41"/></symbol>

  <symbol id="icon-cat-luxury" viewBox="0 0 24 24"><circle cx="12" cy="12" r="6"/><polyline points="12 10 12 12 13 13"/><path d="m16.13 7.66-.81-4.05a2 2 0 0 0-2-1.61h-2.68a2 2 0 0 0-2 1.61l-.78 4.05"/><path d="m7.88 16.36.8 4a2 2 0 0 0 2 1.61h2.72a2 2 0 0 0 2-1.61l.81-4.05"/></symbol>

  <symbol id="icon-status-success" viewBox="0 0 24 24"><path d="M20 6 9 17l-5-5"/></symbol>

  <symbol id="icon-action-external" viewBox="0 0 24 24"><path d="M7 7h10v10"/><path d="M7 17 17 7"/></symbol>

  <symbol id="icon-nav-left" viewBox="0 0 24 24"><path d="m15 18-6-6 6-6"/></symbol>

  <symbol id="icon-nav-right" viewBox="0 0 24 24"><path d="m9 18 6-6-6-6"/></symbol>

  <symbol id="icon-nav-down" viewBox="0 0 24 24"><path d="m6 9 6 6 6-6"/></symbol>

  <symbol id="icon-finance-won" viewBox="0 0 24 24"><path d="M4 5l3.5 14L12 8l4.5 11L20 5M3 10h18M3 14h18"/></symbol>

  <symbol id="icon-status-alert" viewBox="0 0 24 24"><circle cx="12" cy="12" r="10"/><path d="M12 8v4"/><path d="M12 16h.01"/></symbol>

</defs></svg>
